# xmcd CD database file
#
# Track frame offsets:
#	150
#	17235
#	33207
#
# Disc length: 653 seconds
#
# Revision: 4
# Processed by: cddbd v1.5.2PL0 Copyright (c) Steve Scherf et al.
# Submitted via: CDex 1.79
#
DISCID=19028b03
DTITLE=Vaya Con Dios - Don't Break My Heart
DYEAR=1995
DGENRE=Pop
TTITLE0=Don't Break My Heart (Single Version)
TTITLE1=Movin' On
TTITLE2=Soulshine
EXTD=YEAR: 1995
EXTT0=
EXTT1=
EXTT2=
PLAYORDER=
